<svg width="48" height="48" viewBox="0 0 48 48" fill="none" xmlns="http://www.w3.org/2000/svg">
<path d="M45.99 22.05C45.81 22.05 45.64 22.11 45.47 22.16L38.41 15.1C39.02 13.52 39.43 11.9 39.57 10.22C40.04 10.21 40.5 10.03 40.86 9.68C41.6 8.94 41.6 7.75 40.86 7.01C40.12 6.27 38.93 6.27 38.19 7.01C37.91 7.29 37.77 7.64 37.71 8C36.54 7.99 34.75 8.2 32.5 9.19L25.72 2.41C25.77 2.24 25.83 2.07 25.83 1.89C25.83 0.849999 24.99 0 23.94 0C22.89 0 22.05 0.839999 22.05 1.89C22.05 2.07 22.11 2.24 22.16 2.41L15.38 9.19C13.13 8.2 11.33 7.99 10.17 8C10.1 7.64 9.96 7.29 9.69 7.01C8.95 6.27 7.76002 6.27 7.02002 7.01C6.28002 7.75 6.28002 8.94 7.02002 9.68C7.38002 10.04 7.84 10.21 8.31 10.22C8.45 11.9 8.86 13.52 9.47 15.1L2.41 22.16C2.24 22.11 2.07001 22.05 1.89001 22.05C0.850015 22.05 0 22.89 0 23.94C0 24.98 0.840015 25.83 1.89001 25.83C2.07001 25.83 2.24 25.77 2.41 25.73L9.47 32.79C8.86 34.37 8.45 35.99 8.31 37.67C7.84 37.68 7.38002 37.86 7.02002 38.21C6.28002 38.95 6.28002 40.14 7.02002 40.88C7.76002 41.62 8.95 41.62 9.69 40.88C9.97 40.6 10.1 40.26 10.17 39.9C10.21 39.9 10.23 39.9 10.27 39.9C11.43 39.9 13.2 39.65 15.38 38.69L22.17 45.48C22.12 45.65 22.06 45.82 22.06 46C22.06 47.04 22.9 47.89 23.95 47.89C25 47.89 25.84 47.05 25.84 46C25.84 45.82 25.78 45.65 25.73 45.48L32.52 38.69C34.7 39.65 36.46 39.9 37.63 39.9C37.67 39.9 37.69 39.9 37.73 39.9C37.8 40.26 37.94 40.6 38.21 40.88C38.95 41.62 40.14 41.62 40.88 40.88C41.62 40.14 41.62 38.95 40.88 38.21C40.52 37.85 40.06 37.68 39.59 37.67C39.45 35.99 39.04 34.37 38.43 32.79L45.49 25.73C45.66 25.78 45.83 25.84 46.01 25.84C47.05 25.84 47.9 25 47.9 23.95C47.87 22.9 47.03 22.05 45.99 22.05ZM37.94 9.3C38.02 9.43 38.08 9.57 38.19 9.68C38.22 9.71 38.26 9.72 38.29 9.75C38.21 11.23 37.9 12.68 37.4 14.1L33.48 10.18C35.49 9.36 37.03 9.25 37.94 9.3ZM23.93 30.68C21.62 28.65 19.14 26.39 16.88 23.94C19.13 21.49 21.62 19.22 23.93 17.19C26.24 19.22 28.72 21.48 30.98 23.94C28.73 26.39 26.24 28.65 23.93 30.68ZM31.86 24.92C33.91 27.28 35.69 29.8 36.87 32.47L32.22 37.12C30.81 36.4 29.22 35.35 27.5 33.82C26.8 33.19 26.05 32.54 25.27 31.86C25.16 31.76 25.04 31.66 24.93 31.56C27.2 29.55 29.63 27.33 31.86 24.92ZM22.94 31.55C22.83 31.65 22.71 31.75 22.6 31.85C21.82 32.53 21.08 33.18 20.37 33.81C18.65 35.35 17.06 36.4 15.64 37.11L10.99 32.46C12.16 29.79 13.95 27.27 16 24.91C18.23 27.33 20.67 29.55 22.94 31.55ZM16 22.96C13.95 20.6 12.17 18.08 10.99 15.41L15.65 10.75C17.06 11.47 18.64 12.52 20.37 14.06C21.07 14.69 21.82 15.34 22.6 16.02C22.71 16.12 22.83 16.22 22.94 16.32C20.67 18.32 18.23 20.54 16 22.96ZM24.93 16.32C25.04 16.22 25.16 16.12 25.27 16.02C26.05 15.34 26.79 14.69 27.5 14.06C29.22 12.52 30.81 11.47 32.22 10.75L36.88 15.41C35.71 18.08 33.93 20.6 31.87 22.96C29.63 20.54 27.2 18.32 24.93 16.32ZM22.95 3.46C23.24 3.64 23.56 3.78 23.93 3.78C24.3 3.78 24.62 3.65 24.91 3.46L31.25 9.8C29.84 10.56 28.28 11.61 26.62 13.09C25.92 13.71 25.17 14.37 24.4 15.04C24.24 15.18 24.08 15.32 23.92 15.46C23.76 15.32 23.6 15.18 23.44 15.04C22.67 14.37 21.92 13.72 21.22 13.09C19.56 11.61 18.01 10.55 16.59 9.8L22.95 3.46ZM9.57001 9.75C9.60001 9.72 9.64001 9.71 9.67001 9.68C9.78001 9.57 9.85001 9.43 9.92001 9.3C10.83 9.26 12.37 9.37 14.38 10.18L10.46 14.1C9.96002 12.68 9.65001 11.23 9.57001 9.75ZM3.45001 24.92C3.63001 24.63 3.77002 24.31 3.77002 23.94C3.77002 23.57 3.64001 23.25 3.45001 22.96L10.01 16.4C11.26 19.08 13.07 21.6 15.12 23.94C13.06 26.28 11.26 28.8 10.01 31.48L3.45001 24.92ZM9.92001 38.58C9.84001 38.45 9.78001 38.31 9.67001 38.2C9.64001 38.17 9.60001 38.16 9.57001 38.13C9.65001 36.65 9.96002 35.2 10.46 33.78L14.37 37.69C12.36 38.5 10.82 38.62 9.92001 38.58ZM24.92 44.42C24.63 44.24 24.31 44.1 23.94 44.1C23.57 44.1 23.25 44.23 22.96 44.42L16.62 38.08C18.04 37.32 19.59 36.28 21.25 34.79C21.95 34.17 22.7 33.51 23.47 32.84C23.63 32.7 23.79 32.56 23.95 32.42C24.11 32.56 24.27 32.7 24.43 32.84C25.2 33.52 25.95 34.17 26.65 34.79C28.32 36.28 29.87 37.32 31.28 38.08L24.92 44.42ZM38.3 38.13C38.27 38.16 38.23 38.17 38.2 38.2C38.09 38.31 38.03 38.45 37.95 38.58C37.05 38.62 35.51 38.51 33.5 37.7L37.41 33.79C37.9 35.2 38.21 36.65 38.3 38.13ZM32.75 23.94C34.81 21.6 36.61 19.08 37.86 16.4L44.42 22.96C44.24 23.25 44.1 23.57 44.1 23.94C44.1 24.31 44.23 24.63 44.42 24.92L37.86 31.48C36.61 28.8 34.8 26.28 32.75 23.94Z" fill="white"/>
</svg>
