<svg width="148" height="48" viewBox="0 0 148 48" fill="none" xmlns="http://www.w3.org/2000/svg">
<path d="M61.4 32.2C60.08 32.2 59.05 31.93 58.31 31.4C57.57 30.87 57.11 30.05 56.93 28.93C56.9 28.59 56.97 28.34 57.14 28.17C57.31 28 57.56 27.92 57.88 27.92C58.2 27.92 58.44 28 58.59 28.15C58.74 28.3 58.84 28.54 58.9 28.87C59.02 29.4 59.26 29.77 59.65 29.96C60.03 30.16 60.62 30.26 61.4 30.26H64.74C65.74 30.26 66.41 30.08 66.77 29.72C67.13 29.36 67.31 28.69 67.31 27.71C67.31 26.71 67.12 26.03 66.75 25.67C66.38 25.3 65.71 25.12 64.74 25.12H61.87C60.41 25.12 59.33 24.76 58.62 24.05C57.91 23.34 57.56 22.25 57.56 20.79C57.56 19.34 57.91 18.26 58.61 17.56C59.31 16.86 60.39 16.51 61.85 16.51H64.61C65.84 16.51 66.8 16.76 67.5 17.26C68.2 17.76 68.64 18.53 68.83 19.56C68.88 19.89 68.81 20.14 68.64 20.32C68.47 20.49 68.22 20.58 67.88 20.58C67.57 20.58 67.34 20.5 67.19 20.34C67.04 20.18 66.93 19.94 66.89 19.63C66.77 19.17 66.53 18.86 66.18 18.7C65.83 18.53 65.31 18.45 64.62 18.45H61.84C60.91 18.45 60.29 18.61 59.98 18.94C59.66 19.27 59.51 19.88 59.51 20.79C59.51 21.7 59.67 22.33 60 22.67C60.32 23.01 60.95 23.18 61.88 23.18H64.75C66.27 23.18 67.4 23.55 68.15 24.29C68.9 25.03 69.27 26.17 69.27 27.72C69.27 29.26 68.9 30.39 68.16 31.12C67.42 31.85 66.28 32.21 64.76 32.21H61.4V32.2Z" fill="black"/>
<path d="M76.18 17.47V31.23C76.18 31.88 75.85 32.2 75.21 32.2C74.56 32.2 74.23 31.88 74.23 31.23V19.41L74.21 19.43V18.45H71.04C70.39 18.45 70.06 18.12 70.07 17.48C70.07 16.94 70.51 16.51 71.04 16.51H75.34C75.48 16.51 75.6 16.53 75.71 16.57C75.76 16.59 75.8 16.61 75.84 16.64C75.86 16.65 75.87 16.65 75.88 16.67C75.91 16.69 75.93 16.71 75.95 16.73C76.1 16.88 76.18 17.13 76.18 17.47Z" fill="black"/>
<path d="M75.42 16.5C75.52 16.5 75.62 16.52 75.71 16.56C75.6 16.52 75.48 16.5 75.34 16.5H75.42Z" fill="black"/>
<path d="M76.18 17.26V17.48C76.18 17.14 76.1 16.88 75.94 16.72C76.09 16.85 76.18 17.04 76.18 17.26Z" fill="black"/>
<path d="M81.87 32.2C81.22 32.2 80.9 31.88 80.9 31.23V17.47C80.9 16.82 81.22 16.5 81.87 16.5C82.29 16.5 82.65 16.71 82.94 17.13L88.41 25.35L87.99 25.42L93.5 17.13C93.76 16.71 94.16 16.5 94.68 16.5C95.2 16.5 95.47 16.82 95.47 17.47V31.23C95.47 31.88 95.15 32.2 94.5 32.2C93.85 32.2 93.53 31.88 93.53 31.23V19.42L94.13 19.63L89.27 26.79C88.98 27.21 88.59 27.42 88.09 27.42C87.74 27.42 87.43 27.21 87.14 26.79L82.28 19.63L82.86 19.79V31.23C82.85 31.88 82.52 32.2 81.87 32.2Z" fill="black"/>
<path d="M101.67 27.13V27.69C101.67 28.69 101.85 29.36 102.21 29.72C102.57 30.08 103.26 30.26 104.26 30.26H106.16C106.95 30.26 107.53 30.19 107.91 30.04C108.29 29.89 108.54 29.63 108.66 29.26C108.75 28.97 108.86 28.74 109.01 28.59C109.16 28.44 109.39 28.36 109.7 28.36C110.02 28.36 110.27 28.45 110.44 28.61C110.61 28.78 110.66 29.03 110.6 29.35C110.43 30.31 109.97 31.02 109.23 31.49C108.49 31.96 107.46 32.2 106.15 32.2H104.25C102.71 32.2 101.57 31.83 100.83 31.09C100.08 30.35 99.71 29.21 99.71 27.69V25C99.71 23.43 100.08 22.28 100.83 21.54C101.57 20.8 102.72 20.44 104.25 20.46H106.15C107.69 20.46 108.84 20.83 109.58 21.57C110.32 22.31 110.69 23.45 110.69 25V26.16C110.69 26.81 110.37 27.13 109.72 27.13H101.67ZM104.27 22.4C103.27 22.38 102.58 22.56 102.22 22.92C101.86 23.28 101.68 23.97 101.68 24.99V25.18H108.77V24.99C108.77 23.98 108.59 23.29 108.23 22.93C107.87 22.57 107.19 22.39 106.17 22.39H104.27V22.4Z" fill="black"/>
<path d="M118.95 32.2C117.41 32.2 116.27 31.83 115.53 31.08C114.79 30.34 114.41 29.19 114.41 27.66V25C114.41 23.46 114.78 22.31 115.53 21.57C116.27 20.83 117.42 20.46 118.95 20.46H123.44V16.87C123.44 16.22 123.76 15.9 124.41 15.9C125.06 15.9 125.38 16.22 125.38 16.87V31.23C125.38 31.88 125.06 32.2 124.41 32.2C123.76 32.2 123.44 31.88 123.44 31.23V31.07C123.08 31.44 122.6 31.72 122.02 31.92C121.43 32.11 120.7 32.21 119.83 32.21H118.95V32.2ZM118.95 30.25H119.83C120.85 30.25 121.71 30.12 122.4 29.86C123.09 29.6 123.44 29.2 123.44 28.66V22.41H118.95C117.95 22.41 117.26 22.59 116.9 22.96C116.54 23.33 116.36 24.01 116.36 25V27.66C116.36 28.66 116.54 29.35 116.91 29.71C117.27 30.07 117.96 30.25 118.95 30.25Z" fill="black"/>
<path d="M130.62 18.56C129.89 18.56 129.52 18.19 129.52 17.45V16.77C129.52 16.04 129.89 15.68 130.62 15.68H131.29C131.99 15.68 132.34 16.04 132.34 16.77V17.45C132.34 18.19 131.99 18.56 131.29 18.56H130.62ZM130.95 32.2C130.3 32.2 129.98 31.88 129.98 31.23V21.43C129.98 20.78 130.3 20.46 130.95 20.46C131.6 20.46 131.92 20.78 131.92 21.43V31.23C131.92 31.88 131.6 32.2 130.95 32.2Z" fill="black"/>
<path d="M140.35 32.2C139.05 32.2 138.09 31.88 137.46 31.25C136.83 30.62 136.51 29.65 136.51 28.36C136.51 27.06 136.82 26.1 137.45 25.47C138.08 24.84 139.05 24.52 140.35 24.52H145.25C145.2 23.71 144.99 23.16 144.61 22.86C144.23 22.56 143.58 22.41 142.66 22.41H141.32C140.55 22.41 139.97 22.46 139.59 22.57C139.21 22.67 138.95 22.86 138.79 23.13C138.65 23.45 138.51 23.68 138.36 23.8C138.21 23.92 137.99 23.99 137.7 23.99C137.38 23.99 137.12 23.9 136.94 23.72C136.75 23.54 136.7 23.3 136.78 23C137.01 22.13 137.5 21.49 138.23 21.08C138.97 20.67 140 20.47 141.32 20.47H142.66C144.2 20.47 145.35 20.84 146.09 21.58C146.83 22.32 147.2 23.46 147.2 25.01V31.24C147.2 31.89 146.88 32.21 146.23 32.21C145.58 32.21 145.26 31.89 145.26 31.24V30.72C144.43 31.72 143.23 32.21 141.65 32.21H140.35V32.2ZM140.35 30.25H141.65C142.22 30.25 142.76 30.2 143.26 30.09C143.76 29.99 144.19 29.79 144.55 29.52C144.91 29.24 145.15 28.84 145.26 28.33V26.45H140.35C139.59 26.45 139.08 26.58 138.83 26.83C138.58 27.08 138.45 27.59 138.45 28.35C138.45 29.11 138.58 29.62 138.83 29.87C139.08 30.13 139.59 30.25 140.35 30.25Z" fill="black"/>
<path d="M45.99 22.05C45.81 22.05 45.64 22.11 45.47 22.16L38.41 15.1C39.02 13.52 39.43 11.9 39.57 10.22C40.04 10.21 40.5 10.03 40.86 9.68C41.6 8.94 41.6 7.75 40.86 7.01C40.12 6.27 38.93 6.27 38.19 7.01C37.91 7.29 37.77 7.64 37.71 8C36.54 7.99 34.75 8.2 32.5 9.19L25.72 2.41C25.77 2.24 25.83 2.07 25.83 1.89C25.83 0.849999 24.99 0 23.94 0C22.89 0 22.05 0.839999 22.05 1.89C22.05 2.07 22.11 2.24 22.16 2.41L15.38 9.19C13.13 8.2 11.33 7.99 10.17 8C10.1 7.64 9.96 7.29 9.69 7.01C8.95 6.27 7.76 6.27 7.02 7.01C6.28 7.75 6.28 8.94 7.02 9.68C7.38 10.04 7.84 10.21 8.31 10.22C8.45 11.9 8.86 13.52 9.47 15.1L2.41 22.16C2.24 22.11 2.07 22.05 1.89 22.05C0.849999 22.05 0 22.89 0 23.94C0 24.98 0.839999 25.83 1.89 25.83C2.07 25.83 2.24 25.77 2.41 25.73L9.47 32.79C8.86 34.37 8.45 35.99 8.31 37.67C7.84 37.68 7.38 37.86 7.02 38.21C6.28 38.95 6.28 40.14 7.02 40.88C7.76 41.62 8.95 41.62 9.69 40.88C9.97 40.6 10.1 40.26 10.17 39.9C10.21 39.9 10.23 39.9 10.27 39.9C11.43 39.9 13.2 39.65 15.38 38.69L22.17 45.48C22.12 45.65 22.06 45.82 22.06 46C22.06 47.04 22.9 47.89 23.95 47.89C25 47.89 25.84 47.05 25.84 46C25.84 45.82 25.78 45.65 25.73 45.48L32.52 38.69C34.7 39.65 36.46 39.9 37.63 39.9C37.67 39.9 37.69 39.9 37.73 39.9C37.8 40.26 37.94 40.6 38.21 40.88C38.95 41.62 40.14 41.62 40.88 40.88C41.62 40.14 41.62 38.95 40.88 38.21C40.52 37.85 40.06 37.68 39.59 37.67C39.45 35.99 39.04 34.37 38.43 32.79L45.49 25.73C45.66 25.78 45.83 25.84 46.01 25.84C47.05 25.84 47.9 25 47.9 23.95C47.88 22.9 47.03 22.05 45.99 22.05ZM37.94 9.3C38.02 9.43 38.08 9.57 38.19 9.68C38.22 9.71 38.26 9.72 38.29 9.75C38.21 11.23 37.9 12.68 37.4 14.1L33.48 10.18C35.49 9.36 37.03 9.25 37.94 9.3ZM23.93 30.68C21.62 28.65 19.14 26.39 16.88 23.94C19.13 21.49 21.62 19.22 23.93 17.19C26.24 19.22 28.72 21.48 30.98 23.94C28.73 26.39 26.24 28.65 23.93 30.68ZM31.86 24.92C33.91 27.28 35.69 29.8 36.87 32.47L32.22 37.12C30.81 36.4 29.22 35.35 27.5 33.82C26.8 33.19 26.05 32.54 25.27 31.86C25.16 31.76 25.04 31.66 24.93 31.56C27.2 29.55 29.63 27.33 31.86 24.92ZM22.94 31.55C22.83 31.65 22.71 31.75 22.6 31.85C21.82 32.53 21.08 33.18 20.37 33.81C18.65 35.35 17.06 36.4 15.64 37.11L10.99 32.46C12.16 29.79 13.95 27.27 16 24.91C18.23 27.33 20.67 29.55 22.94 31.55ZM16 22.96C13.95 20.6 12.17 18.08 10.99 15.41L15.65 10.75C17.06 11.47 18.64 12.52 20.37 14.06C21.07 14.69 21.82 15.34 22.6 16.02C22.71 16.12 22.83 16.22 22.94 16.32C20.67 18.32 18.23 20.54 16 22.96ZM24.93 16.32C25.04 16.22 25.16 16.12 25.27 16.02C26.05 15.34 26.79 14.69 27.5 14.06C29.22 12.52 30.81 11.47 32.22 10.75L36.88 15.41C35.71 18.08 33.93 20.6 31.87 22.96C29.63 20.54 27.2 18.32 24.93 16.32ZM22.95 3.46C23.24 3.64 23.56 3.78 23.93 3.78C24.3 3.78 24.62 3.65 24.91 3.46L31.25 9.8C29.84 10.56 28.28 11.61 26.62 13.09C25.92 13.71 25.17 14.37 24.4 15.04C24.24 15.18 24.08 15.32 23.92 15.46C23.76 15.32 23.6 15.18 23.44 15.04C22.67 14.37 21.92 13.72 21.22 13.09C19.56 11.61 18.01 10.55 16.59 9.8L22.95 3.46ZM9.57 9.75C9.6 9.72 9.64 9.71 9.67 9.68C9.78 9.57 9.85 9.43 9.92 9.3C10.83 9.26 12.37 9.37 14.38 10.18L10.46 14.1C9.96 12.68 9.66 11.23 9.57 9.75ZM3.45 24.92C3.63 24.63 3.77 24.31 3.77 23.94C3.77 23.57 3.64 23.25 3.45 22.96L10.01 16.4C11.26 19.08 13.07 21.6 15.12 23.94C13.06 26.28 11.26 28.8 10.01 31.48L3.45 24.92ZM9.92 38.58C9.84 38.45 9.78 38.31 9.67 38.2C9.64 38.17 9.6 38.16 9.57 38.13C9.65 36.65 9.96 35.2 10.46 33.78L14.37 37.69C12.36 38.5 10.82 38.62 9.92 38.58ZM24.92 44.42C24.63 44.24 24.31 44.1 23.94 44.1C23.57 44.1 23.25 44.23 22.96 44.42L16.62 38.08C18.04 37.32 19.59 36.28 21.25 34.79C21.95 34.17 22.7 33.51 23.47 32.84C23.63 32.7 23.79 32.56 23.95 32.42C24.11 32.56 24.27 32.7 24.43 32.84C25.2 33.52 25.95 34.17 26.65 34.79C28.32 36.28 29.87 37.32 31.28 38.08L24.92 44.42ZM38.3 38.13C38.27 38.16 38.23 38.17 38.2 38.2C38.09 38.31 38.03 38.45 37.95 38.58C37.05 38.62 35.51 38.51 33.5 37.7L37.41 33.79C37.9 35.2 38.21 36.65 38.3 38.13ZM32.75 23.94C34.81 21.6 36.61 19.08 37.86 16.4L44.42 22.96C44.24 23.25 44.1 23.57 44.1 23.94C44.1 24.31 44.23 24.63 44.42 24.92L37.86 31.48C36.61 28.8 34.8 26.28 32.75 23.94Z" fill="#BA1D17"/>
</svg>
