<svg width="148" height="49" viewBox="0 0 148 49" fill="none" xmlns="http://www.w3.org/2000/svg">
<path d="M62.0599 32.65C60.7399 32.65 59.7099 32.38 58.9699 31.85C58.2299 31.32 57.7699 30.5 57.5899 29.38C57.5599 29.04 57.6299 28.79 57.7999 28.62C57.9699 28.45 58.2199 28.37 58.5399 28.37C58.8599 28.37 59.0999 28.45 59.2499 28.6C59.3999 28.75 59.4999 28.99 59.5599 29.32C59.6799 29.85 59.9199 30.22 60.3099 30.41C60.6899 30.61 61.2799 30.71 62.0599 30.71H65.3999C66.3999 30.71 67.0699 30.53 67.4299 30.17C67.7899 29.81 67.9699 29.14 67.9699 28.16C67.9699 27.16 67.7799 26.48 67.4099 26.12C67.0399 25.75 66.3699 25.57 65.3999 25.57H62.5299C61.0699 25.57 59.9899 25.21 59.2799 24.5C58.5699 23.79 58.2199 22.7 58.2199 21.24C58.2199 19.79 58.5699 18.71 59.2699 18.01C59.9699 17.31 61.0499 16.96 62.5099 16.96H65.2699C66.4999 16.96 67.4599 17.21 68.1599 17.71C68.8599 18.21 69.2999 18.98 69.4899 20.01C69.5399 20.34 69.4699 20.59 69.2999 20.77C69.1299 20.94 68.8799 21.03 68.5399 21.03C68.2299 21.03 67.9999 20.95 67.8499 20.79C67.6999 20.63 67.5899 20.39 67.5499 20.08C67.4299 19.62 67.1899 19.31 66.8399 19.15C66.4899 18.98 65.9699 18.9 65.2799 18.9H62.4999C61.5699 18.9 60.9499 19.06 60.6399 19.39C60.3199 19.72 60.1699 20.33 60.1699 21.24C60.1699 22.15 60.3299 22.78 60.6599 23.12C60.9799 23.46 61.6099 23.63 62.5399 23.63H65.4099C66.9299 23.63 68.0599 24 68.8099 24.74C69.5599 25.48 69.9299 26.62 69.9299 28.17C69.9299 29.71 69.5599 30.84 68.8199 31.57C68.0799 32.3 66.9399 32.66 65.4199 32.66H62.0599V32.65Z" fill="#221F3B"/>
<path d="M76.84 17.92V31.68C76.84 32.33 76.51 32.65 75.87 32.65C75.22 32.65 74.89 32.33 74.89 31.68V19.86L74.87 19.88V18.9H71.7C71.05 18.9 70.72 18.57 70.73 17.93C70.73 17.39 71.17 16.96 71.7 16.96H76C76.14 16.96 76.26 16.98 76.37 17.02C76.42 17.04 76.46 17.06 76.5 17.09C76.52 17.1 76.53 17.1 76.54 17.12C76.57 17.14 76.59 17.16 76.61 17.18C76.76 17.33 76.84 17.58 76.84 17.92Z" fill="#221F3B"/>
<path d="M76.0799 16.95C76.1799 16.95 76.2799 16.9699 76.3699 17.0099C76.2599 16.9699 76.1399 16.95 75.9999 16.95H76.0799Z" fill="#221F3B"/>
<path d="M76.84 17.71V17.93C76.84 17.59 76.76 17.33 76.6 17.17C76.75 17.3 76.84 17.49 76.84 17.71Z" fill="#221F3B"/>
<path d="M82.5299 32.65C81.8799 32.65 81.5599 32.33 81.5599 31.68V17.9199C81.5599 17.2699 81.8799 16.95 82.5299 16.95C82.9499 16.95 83.3099 17.16 83.5999 17.58L89.0699 25.8L88.6499 25.87L94.1599 17.58C94.4199 17.16 94.8199 16.95 95.3399 16.95C95.8599 16.95 96.1299 17.2699 96.1299 17.9199V31.68C96.1299 32.33 95.8099 32.65 95.1599 32.65C94.5099 32.65 94.1899 32.33 94.1899 31.68V19.87L94.7899 20.08L89.9299 27.2399C89.6399 27.6599 89.2499 27.87 88.7499 27.87C88.3999 27.87 88.0899 27.6599 87.7999 27.2399L82.9399 20.08L83.5199 20.2399V31.68C83.5099 32.33 83.1799 32.65 82.5299 32.65Z" fill="#221F3B"/>
<path d="M102.33 27.58V28.14C102.33 29.14 102.51 29.81 102.87 30.17C103.23 30.53 103.92 30.71 104.92 30.71H106.82C107.61 30.71 108.19 30.64 108.57 30.49C108.95 30.34 109.2 30.08 109.32 29.71C109.41 29.42 109.52 29.19 109.67 29.04C109.82 28.89 110.05 28.81 110.36 28.81C110.68 28.81 110.93 28.9 111.1 29.06C111.27 29.23 111.32 29.48 111.26 29.8C111.09 30.76 110.63 31.47 109.89 31.94C109.15 32.41 108.12 32.65 106.81 32.65H104.91C103.37 32.65 102.23 32.28 101.49 31.54C100.74 30.8 100.37 29.66 100.37 28.14V25.45C100.37 23.88 100.74 22.73 101.49 21.99C102.23 21.25 103.38 20.89 104.91 20.91H106.81C108.35 20.91 109.5 21.28 110.24 22.02C110.98 22.76 111.35 23.9 111.35 25.45V26.61C111.35 27.26 111.03 27.58 110.38 27.58H102.33ZM104.93 22.85C103.93 22.83 103.24 23.01 102.88 23.37C102.52 23.73 102.34 24.42 102.34 25.44V25.63H109.43V25.44C109.43 24.43 109.25 23.74 108.89 23.38C108.53 23.02 107.85 22.84 106.83 22.84H104.93V22.85Z" fill="#221F3B"/>
<path d="M119.61 32.65C118.07 32.65 116.93 32.28 116.19 31.53C115.45 30.79 115.07 29.64 115.07 28.11V25.45C115.07 23.91 115.44 22.76 116.19 22.02C116.93 21.28 118.08 20.91 119.61 20.91H124.1V17.32C124.1 16.67 124.42 16.35 125.07 16.35C125.72 16.35 126.04 16.67 126.04 17.32V31.68C126.04 32.33 125.72 32.65 125.07 32.65C124.42 32.65 124.1 32.33 124.1 31.68V31.52C123.74 31.89 123.26 32.17 122.68 32.37C122.09 32.56 121.36 32.66 120.49 32.66H119.61V32.65ZM119.61 30.7H120.49C121.51 30.7 122.37 30.57 123.06 30.31C123.75 30.05 124.1 29.65 124.1 29.11V22.86H119.61C118.61 22.86 117.92 23.04 117.56 23.41C117.2 23.78 117.02 24.46 117.02 25.45V28.11C117.02 29.11 117.2 29.8 117.57 30.16C117.93 30.52 118.62 30.7 119.61 30.7Z" fill="#221F3B"/>
<path d="M131.28 19.01C130.55 19.01 130.18 18.64 130.18 17.9V17.22C130.18 16.49 130.55 16.13 131.28 16.13H131.95C132.65 16.13 133 16.49 133 17.22V17.9C133 18.64 132.65 19.01 131.95 19.01H131.28ZM131.61 32.65C130.96 32.65 130.64 32.33 130.64 31.68V21.88C130.64 21.23 130.96 20.91 131.61 20.91C132.26 20.91 132.58 21.23 132.58 21.88V31.68C132.58 32.33 132.26 32.65 131.61 32.65Z" fill="#221F3B"/>
<path d="M141.01 32.65C139.71 32.65 138.75 32.33 138.12 31.7C137.49 31.07 137.17 30.1 137.17 28.81C137.17 27.51 137.48 26.55 138.11 25.92C138.74 25.29 139.71 24.97 141.01 24.97H145.91C145.86 24.16 145.65 23.61 145.27 23.31C144.89 23.01 144.24 22.86 143.32 22.86H141.98C141.21 22.86 140.63 22.91 140.25 23.02C139.87 23.12 139.61 23.31 139.45 23.58C139.31 23.9 139.17 24.13 139.02 24.25C138.87 24.37 138.65 24.44 138.36 24.44C138.04 24.44 137.78 24.35 137.6 24.17C137.41 23.99 137.36 23.75 137.44 23.45C137.67 22.58 138.16 21.94 138.89 21.53C139.63 21.12 140.66 20.92 141.98 20.92H143.32C144.86 20.92 146.01 21.29 146.75 22.03C147.49 22.77 147.86 23.91 147.86 25.46V31.69C147.86 32.34 147.54 32.66 146.89 32.66C146.24 32.66 145.92 32.34 145.92 31.69V31.17C145.09 32.17 143.89 32.66 142.31 32.66H141.01V32.65ZM141.01 30.7H142.31C142.88 30.7 143.42 30.65 143.92 30.54C144.42 30.44 144.85 30.24 145.21 29.97C145.57 29.69 145.81 29.29 145.92 28.78V26.9H141.01C140.25 26.9 139.74 27.03 139.49 27.28C139.24 27.53 139.11 28.04 139.11 28.8C139.11 29.56 139.24 30.07 139.49 30.32C139.74 30.58 140.25 30.7 141.01 30.7Z" fill="#221F3B"/>
<path d="M46.65 22.5C46.47 22.5 46.3 22.56 46.13 22.61L39.07 15.5499C39.68 13.9699 40.09 12.3499 40.23 10.6699C40.7 10.6599 41.16 10.48 41.52 10.13C42.26 9.38995 42.26 8.19995 41.52 7.45995C40.78 6.71995 39.59 6.71995 38.85 7.45995C38.57 7.73995 38.43 8.08995 38.37 8.44995C37.2 8.43995 35.41 8.64995 33.16 9.63995L26.38 2.85995C26.43 2.68995 26.49 2.51995 26.49 2.33995C26.49 1.29995 25.65 0.449951 24.6 0.449951C23.55 0.449951 22.71 1.28995 22.71 2.33995C22.71 2.51995 22.77 2.68995 22.82 2.85995L16.04 9.63995C13.79 8.64995 11.99 8.43995 10.83 8.44995C10.76 8.08995 10.62 7.73995 10.35 7.45995C9.60997 6.71995 8.41997 6.71995 7.67997 7.45995C6.93997 8.19995 6.93997 9.38995 7.67997 10.13C8.03997 10.49 8.49997 10.6599 8.96997 10.6699C9.10997 12.3499 9.51997 13.9699 10.13 15.5499L3.06997 22.61C2.89997 22.56 2.72997 22.5 2.54997 22.5C1.50997 22.5 0.659973 23.3399 0.659973 24.3899C0.659973 25.4299 1.49997 26.2799 2.54997 26.2799C2.72997 26.2799 2.89997 26.22 3.06997 26.18L10.13 33.2399C9.51997 34.8199 9.10997 36.44 8.96997 38.12C8.49997 38.13 8.03997 38.31 7.67997 38.66C6.93997 39.4 6.93997 40.59 7.67997 41.33C8.41997 42.07 9.60997 42.07 10.35 41.33C10.63 41.05 10.76 40.7099 10.83 40.3499C10.87 40.3499 10.89 40.3499 10.93 40.3499C12.09 40.3499 13.86 40.0999 16.04 39.1399L22.83 45.93C22.78 46.1 22.72 46.2699 22.72 46.4499C22.72 47.4899 23.56 48.3399 24.61 48.3399C25.66 48.3399 26.5 47.4999 26.5 46.4499C26.5 46.2699 26.44 46.1 26.39 45.93L33.18 39.1399C35.36 40.0999 37.12 40.3499 38.29 40.3499C38.33 40.3499 38.35 40.3499 38.39 40.3499C38.46 40.7099 38.6 41.05 38.87 41.33C39.61 42.07 40.8 42.07 41.54 41.33C42.28 40.59 42.28 39.4 41.54 38.66C41.18 38.3 40.72 38.13 40.25 38.12C40.11 36.44 39.7 34.8199 39.09 33.2399L46.15 26.18C46.32 26.23 46.49 26.29 46.67 26.29C47.71 26.29 48.56 25.45 48.56 24.4C48.54 23.35 47.69 22.5 46.65 22.5ZM38.6 9.74995C38.68 9.87995 38.74 10.02 38.85 10.13C38.88 10.16 38.92 10.17 38.95 10.2C38.87 11.68 38.56 13.1299 38.06 14.5499L34.14 10.63C36.15 9.80995 37.69 9.69995 38.6 9.74995ZM24.59 31.1299C22.28 29.0999 19.8 26.8399 17.54 24.3899C19.79 21.9399 22.28 19.6699 24.59 17.6399C26.9 19.6699 29.38 21.9299 31.64 24.3899C29.39 26.8399 26.9 29.0999 24.59 31.1299ZM32.52 25.37C34.57 27.73 36.35 30.2499 37.53 32.9199L32.88 37.57C31.47 36.85 29.88 35.7999 28.16 34.2699C27.46 33.6399 26.71 32.9899 25.93 32.3099C25.82 32.2099 25.7 32.11 25.59 32.01C27.86 30 30.29 27.78 32.52 25.37ZM23.6 32C23.49 32.1 23.37 32.2 23.26 32.3C22.48 32.98 21.74 33.63 21.03 34.26C19.31 35.8 17.72 36.8499 16.3 37.5599L11.65 32.91C12.82 30.24 14.61 27.72 16.66 25.36C18.89 27.78 21.33 30 23.6 32ZM16.66 23.41C14.61 21.05 12.83 18.53 11.65 15.86L16.31 11.2C17.72 11.92 19.3 12.9699 21.03 14.5099C21.73 15.1399 22.48 15.79 23.26 16.47C23.37 16.57 23.49 16.67 23.6 16.77C21.33 18.77 18.89 20.99 16.66 23.41ZM25.59 16.77C25.7 16.67 25.82 16.57 25.93 16.47C26.71 15.79 27.45 15.1399 28.16 14.5099C29.88 12.9699 31.47 11.92 32.88 11.2L37.54 15.86C36.37 18.53 34.59 21.05 32.53 23.41C30.29 20.99 27.86 18.77 25.59 16.77ZM23.61 3.90995C23.9 4.08995 24.22 4.22995 24.59 4.22995C24.96 4.22995 25.28 4.09995 25.57 3.90995L31.91 10.25C30.5 11.01 28.94 12.06 27.28 13.54C26.58 14.16 25.83 14.82 25.06 15.49C24.9 15.63 24.74 15.77 24.58 15.91C24.42 15.77 24.26 15.63 24.1 15.49C23.33 14.82 22.58 14.17 21.88 13.54C20.22 12.06 18.67 11 17.25 10.25L23.61 3.90995ZM10.23 10.2C10.26 10.17 10.3 10.16 10.33 10.13C10.44 10.02 10.51 9.87995 10.58 9.74995C11.49 9.70995 13.03 9.81995 15.04 10.63L11.12 14.5499C10.62 13.1299 10.32 11.68 10.23 10.2ZM4.10997 25.37C4.28997 25.08 4.42997 24.7599 4.42997 24.3899C4.42997 24.0199 4.29997 23.7 4.10997 23.41L10.67 16.8499C11.92 19.5299 13.73 22.0499 15.78 24.3899C13.72 26.7299 11.92 29.25 10.67 31.93L4.10997 25.37ZM10.58 39.0299C10.5 38.8999 10.44 38.76 10.33 38.65C10.3 38.62 10.26 38.61 10.23 38.58C10.31 37.1 10.62 35.65 11.12 34.23L15.03 38.1399C13.02 38.9499 11.48 39.0699 10.58 39.0299ZM25.58 44.87C25.29 44.69 24.97 44.55 24.6 44.55C24.23 44.55 23.91 44.68 23.62 44.87L17.28 38.5299C18.7 37.7699 20.25 36.7299 21.91 35.2399C22.61 34.6199 23.36 33.96 24.13 33.29C24.29 33.15 24.45 33.01 24.61 32.87C24.77 33.01 24.93 33.15 25.09 33.29C25.86 33.97 26.61 34.6199 27.31 35.2399C28.98 36.7299 30.53 37.7699 31.94 38.5299L25.58 44.87ZM38.96 38.58C38.93 38.61 38.89 38.62 38.86 38.65C38.75 38.76 38.69 38.8999 38.61 39.0299C37.71 39.0699 36.17 38.96 34.16 38.15L38.07 34.2399C38.56 35.6499 38.87 37.1 38.96 38.58ZM33.41 24.3899C35.47 22.0499 37.27 19.5299 38.52 16.8499L45.08 23.41C44.9 23.7 44.76 24.0199 44.76 24.3899C44.76 24.7599 44.89 25.08 45.08 25.37L38.52 31.93C37.27 29.25 35.46 26.7299 33.41 24.3899Z" fill="#221F3B"/>
</svg>
